<?xml version="1.0" standalone="no"?>
<!DOCTYPE svg PUBLIC "-//W3C//DTD SVG 20010904//EN"
 "http://www.w3.org/TR/2001/REC-SVG-20010904/DTD/svg10.dtd">
<svg version="1.0" xmlns="http://www.w3.org/2000/svg"
 width="726.000000pt" height="726.000000pt" viewBox="0 0 726.000000 726.000000"
 preserveAspectRatio="xMidYMid meet">
<metadata>
Created by potrace 1.11, written by Peter Selinger 2001-2013
</metadata>
<g transform="translate(0.000000,726.000000) scale(0.100000,-0.100000)"
fill="#000000" stroke="none">
<path d="M6695 5453 c-27 -8 -75 -20 -105 -27 -52 -12 -138 -37 -260 -77 -98
-31 -119 -32 -221 -5 -348 91 -555 36 -888 -234 -110 -89 -138 -108 -169 -115
-23 -6 -262 -85 -287 -96 -11 -4 -77 -28 -147 -52 l-126 -43 -7 61 c-14 138
-94 298 -192 385 -112 100 -301 174 -479 186 l-94 7 0 -470 0 -470 -107 -43
c-60 -23 -117 -48 -128 -54 -11 -7 -42 -21 -70 -31 -27 -11 -70 -29 -93 -42
-38 -19 -43 -20 -37 -5 15 39 16 163 1 267 -25 179 -77 313 -166 435 -136 184
-328 308 -593 381 -152 42 -143 42 -956 46 l-784 4 7 -72 c10 -102 40 -209 82
-298 29 -59 56 -95 123 -162 72 -72 102 -94 181 -132 52 -26 136 -59 185 -74
l90 -27 415 -6 c400 -5 417 -6 470 -28 65 -26 131 -85 162 -145 48 -93 20
-227 -64 -303 -87 -78 -31 -74 -886 -74 l-762 0 2 -837 3 -838 30 -60 c62
-126 197 -228 363 -276 75 -21 260 -49 327 -49 l45 0 0 358 0 358 130 129 130
129 55 -54 c30 -30 55 -57 55 -60 0 -4 -18 -26 -40 -51 -129 -147 -234 -332
-271 -479 -29 -119 -24 -288 12 -374 13 -33 29 -61 34 -62 6 -2 46 52 90 118
44 67 122 178 174 247 95 128 114 152 180 231 85 100 90 105 99 93 27 -41 376
-382 425 -415 80 -54 204 -112 302 -139 103 -29 306 -32 400 -6 117 33 325
155 325 190 0 7 -206 218 -457 470 -452 452 -458 458 -437 475 126 102 162
132 178 151 11 11 25 21 32 21 7 0 14 4 16 9 11 30 692 531 721 531 4 0 7
-272 7 -603 0 -570 1 -608 20 -683 39 -155 127 -296 249 -399 110 -93 318
-170 442 -163 l54 3 3 598 c1 328 4 597 7 597 2 0 240 -235 528 -523 460 -459
534 -529 603 -570 167 -97 254 -122 434 -122 162 0 195 7 335 76 78 38 195
121 195 138 0 5 -354 360 -787 790 l-787 781 690 686 689 686 -38 18 -38 17
48 18 c26 9 95 35 153 57 58 22 141 54 185 71 44 17 84 34 90 39 14 13 -44 8
-100 -9z m-1844 -660 c-17 -32 -55 -61 -116 -88 -98 -44 -188 -86 -217 -101
-28 -14 -28 -14 -28 20 0 41 -3 39 205 120 66 26 129 51 140 56 11 5 21 9 23
9 1 1 -2 -7 -7 -16z m-1135 -589 c-3 -7 -22 -21 -43 -32 -46 -22 -245 -135
-334 -189 -35 -22 -71 -42 -79 -46 -16 -7 -33 -17 -95 -58 l-40 -27 48 97 c54
109 16 81 332 248 99 52 187 98 195 102 12 7 16 0 18 -37 2 -24 1 -50 -2 -58z"/>
</g>
</svg>
